<mxfile host="Electron" modified="2024-10-07T23:47:37.915Z" agent="Mozilla/5.0 (Windows NT 10.0; Win64; x64) AppleWebKit/537.36 (KHTML, like Gecko) draw.io/21.6.8 Chrome/114.0.5735.289 Electron/25.5.0 Safari/537.36" etag="ppbIsQ0XAAAH1wWOGfI_" version="21.6.8" type="device">
  <diagram name="Page-1" id="Nw03qkc7wukC0b0yohpe">
    <mxGraphModel dx="864" dy="516" grid="1" gridSize="10" guides="1" tooltips="1" connect="1" arrows="1" fold="1" page="1" pageScale="1" pageWidth="827" pageHeight="1169" math="0" shadow="0">
      <root>
        <mxCell id="0" />
        <mxCell id="1" parent="0" />
        <mxCell id="W6TXOOt0tsmOu9OlbgCU-2" value="" style="swimlane;startSize=0;" vertex="1" parent="1">
          <mxGeometry x="270" y="180" width="200" height="590" as="geometry" />
        </mxCell>
        <mxCell id="W6TXOOt0tsmOu9OlbgCU-7" value="يسمح باللعب" style="ellipse;whiteSpace=wrap;html=1;" vertex="1" parent="W6TXOOt0tsmOu9OlbgCU-2">
          <mxGeometry x="40" y="170" width="120" height="80" as="geometry" />
        </mxCell>
        <mxCell id="W6TXOOt0tsmOu9OlbgCU-4" value="يتحقق من الفائز" style="ellipse;whiteSpace=wrap;html=1;" vertex="1" parent="W6TXOOt0tsmOu9OlbgCU-2">
          <mxGeometry x="40" y="380" width="120" height="80" as="geometry" />
        </mxCell>
        <mxCell id="W6TXOOt0tsmOu9OlbgCU-3" value="يعالج النقرات" style="ellipse;whiteSpace=wrap;html=1;" vertex="1" parent="W6TXOOt0tsmOu9OlbgCU-2">
          <mxGeometry x="40" y="270" width="120" height="80" as="geometry" />
        </mxCell>
        <mxCell id="W6TXOOt0tsmOu9OlbgCU-8" value="توفير واجهة مستخدم" style="ellipse;whiteSpace=wrap;html=1;" vertex="1" parent="W6TXOOt0tsmOu9OlbgCU-2">
          <mxGeometry x="40" y="50" width="120" height="80" as="geometry" />
        </mxCell>
        <mxCell id="W6TXOOt0tsmOu9OlbgCU-16" value="يقوم بالنقر" style="ellipse;whiteSpace=wrap;html=1;" vertex="1" parent="W6TXOOt0tsmOu9OlbgCU-2">
          <mxGeometry x="40" y="490" width="120" height="80" as="geometry" />
        </mxCell>
        <mxCell id="W6TXOOt0tsmOu9OlbgCU-9" value="النظام" style="swimlane;whiteSpace=wrap;html=1;" vertex="1" parent="1">
          <mxGeometry x="560" y="370" width="90" height="40" as="geometry" />
        </mxCell>
        <mxCell id="W6TXOOt0tsmOu9OlbgCU-11" value="" style="endArrow=classic;html=1;rounded=0;exitX=0;exitY=0.5;exitDx=0;exitDy=0;entryX=0.967;entryY=0.688;entryDx=0;entryDy=0;entryPerimeter=0;" edge="1" parent="1" source="W6TXOOt0tsmOu9OlbgCU-9" target="W6TXOOt0tsmOu9OlbgCU-8">
          <mxGeometry width="50" height="50" relative="1" as="geometry">
            <mxPoint x="390" y="450" as="sourcePoint" />
            <mxPoint x="440" y="400" as="targetPoint" />
          </mxGeometry>
        </mxCell>
        <mxCell id="W6TXOOt0tsmOu9OlbgCU-12" value="" style="endArrow=classic;html=1;rounded=0;exitX=0;exitY=0.5;exitDx=0;exitDy=0;entryX=1;entryY=0.5;entryDx=0;entryDy=0;" edge="1" parent="1" source="W6TXOOt0tsmOu9OlbgCU-9" target="W6TXOOt0tsmOu9OlbgCU-7">
          <mxGeometry width="50" height="50" relative="1" as="geometry">
            <mxPoint x="564" y="477.5" as="sourcePoint" />
            <mxPoint x="430" y="372.5" as="targetPoint" />
          </mxGeometry>
        </mxCell>
        <mxCell id="W6TXOOt0tsmOu9OlbgCU-13" value="" style="endArrow=classic;html=1;rounded=0;exitX=0;exitY=0.75;exitDx=0;exitDy=0;entryX=1;entryY=0.5;entryDx=0;entryDy=0;" edge="1" parent="1" source="W6TXOOt0tsmOu9OlbgCU-9" target="W6TXOOt0tsmOu9OlbgCU-3">
          <mxGeometry width="50" height="50" relative="1" as="geometry">
            <mxPoint x="570" y="400" as="sourcePoint" />
            <mxPoint x="440" y="400" as="targetPoint" />
          </mxGeometry>
        </mxCell>
        <mxCell id="W6TXOOt0tsmOu9OlbgCU-14" value="" style="endArrow=classic;html=1;rounded=0;exitX=0;exitY=1;exitDx=0;exitDy=0;entryX=1;entryY=0.5;entryDx=0;entryDy=0;" edge="1" parent="1" source="W6TXOOt0tsmOu9OlbgCU-9" target="W6TXOOt0tsmOu9OlbgCU-4">
          <mxGeometry width="50" height="50" relative="1" as="geometry">
            <mxPoint x="570" y="410" as="sourcePoint" />
            <mxPoint x="440" y="500" as="targetPoint" />
          </mxGeometry>
        </mxCell>
        <mxCell id="W6TXOOt0tsmOu9OlbgCU-20" value="user" style="shape=umlActor;verticalLabelPosition=bottom;verticalAlign=top;html=1;outlineConnect=0;" vertex="1" parent="1">
          <mxGeometry x="70" y="460" width="30" height="60" as="geometry" />
        </mxCell>
        <mxCell id="W6TXOOt0tsmOu9OlbgCU-21" value="" style="endArrow=classic;html=1;rounded=0;entryX=0;entryY=0.5;entryDx=0;entryDy=0;" edge="1" parent="1" source="W6TXOOt0tsmOu9OlbgCU-20" target="W6TXOOt0tsmOu9OlbgCU-16">
          <mxGeometry width="50" height="50" relative="1" as="geometry">
            <mxPoint x="390" y="540" as="sourcePoint" />
            <mxPoint x="440" y="490" as="targetPoint" />
          </mxGeometry>
        </mxCell>
      </root>
    </mxGraphModel>
  </diagram>
</mxfile>
